<svg width="411" height="308" viewBox="0 0 411 308" fill="none" xmlns="http://www.w3.org/2000/svg">
<mask id="path-1-outside-1_9_10" maskUnits="userSpaceOnUse" x="8" y="30" width="183" height="113" fill="black">
<rect fill="white" x="8" y="30" width="183" height="113"/>
<path d="M62.957 32.3594V139H42.8887V32.3594H62.957ZM96.0625 32.3594V48.2529H10.1494V32.3594H96.0625ZM168.792 32.3594H188.934V103.185C188.934 111.339 187.176 118.199 183.66 123.766C180.145 129.283 175.359 133.458 169.305 136.29C163.25 139.073 156.365 140.465 148.65 140.465C140.838 140.465 133.88 139.073 127.776 136.29C121.673 133.458 116.888 129.283 113.421 123.766C109.954 118.199 108.221 111.339 108.221 103.185V32.3594H128.362V103.185C128.362 108.165 129.192 112.242 130.853 115.416C132.513 118.541 134.856 120.86 137.884 122.374C140.911 123.888 144.5 124.645 148.65 124.645C152.85 124.645 156.438 123.888 159.417 122.374C162.444 120.86 164.764 118.541 166.375 115.416C167.986 112.242 168.792 108.165 168.792 103.185V32.3594Z"/>
</mask>
<path d="M62.957 32.3594H64.957V30.3594H62.957V32.3594ZM62.957 139V141H64.957V139H62.957ZM42.8887 139H40.8887V141H42.8887V139ZM42.8887 32.3594V30.3594H40.8887V32.3594H42.8887ZM96.0625 32.3594H98.0625V30.3594H96.0625V32.3594ZM96.0625 48.2529V50.2529H98.0625V48.2529H96.0625ZM10.1494 48.2529H8.14941V50.2529H10.1494V48.2529ZM10.1494 32.3594V30.3594H8.14941V32.3594H10.1494ZM60.957 32.3594V139H64.957V32.3594H60.957ZM62.957 137H42.8887V141H62.957V137ZM44.8887 139V32.3594H40.8887V139H44.8887ZM42.8887 34.3594H62.957V30.3594H42.8887V34.3594ZM94.0625 32.3594V48.2529H98.0625V32.3594H94.0625ZM96.0625 46.2529H10.1494V50.2529H96.0625V46.2529ZM12.1494 48.2529V32.3594H8.14941V48.2529H12.1494ZM10.1494 34.3594H96.0625V30.3594H10.1494V34.3594ZM168.792 32.3594V30.3594H166.792V32.3594H168.792ZM188.934 32.3594H190.934V30.3594H188.934V32.3594ZM183.66 123.766L185.347 124.84L185.351 124.834L183.66 123.766ZM169.305 136.29L170.14 138.107L170.152 138.102L169.305 136.29ZM127.776 136.29L126.935 138.104L126.947 138.11L127.776 136.29ZM113.421 123.766L111.723 124.823L111.727 124.83L113.421 123.766ZM108.221 32.3594V30.3594H106.221V32.3594H108.221ZM128.362 32.3594H130.362V30.3594H128.362V32.3594ZM130.853 115.416L129.08 116.343L129.086 116.354L130.853 115.416ZM159.417 122.374L158.523 120.585L158.511 120.591L159.417 122.374ZM166.375 115.416L168.153 116.333L168.158 116.321L166.375 115.416ZM168.792 34.3594H188.934V30.3594H168.792V34.3594ZM186.934 32.3594V103.185H190.934V32.3594H186.934ZM186.934 103.185C186.934 111.051 185.24 117.519 181.969 122.698L185.351 124.834C189.112 118.879 190.934 111.627 190.934 103.185H186.934ZM181.973 122.691C178.667 127.881 174.176 131.804 168.457 134.478L170.152 138.102C176.543 135.112 181.622 130.686 185.347 124.84L181.973 122.691ZM168.469 134.473C162.715 137.118 156.122 138.465 148.65 138.465V142.465C156.608 142.465 163.785 141.028 170.14 138.107L168.469 134.473ZM148.65 138.465C141.077 138.465 134.41 137.117 128.606 134.47L126.947 138.11C133.35 141.03 140.598 142.465 148.65 142.465V138.465ZM128.618 134.476C122.853 131.801 118.369 127.881 115.114 122.702L111.727 124.83C115.407 130.685 120.493 135.115 126.935 138.104L128.618 134.476ZM115.119 122.708C111.892 117.528 110.221 111.056 110.221 103.185H106.221C106.221 111.622 108.016 118.87 111.723 124.823L115.119 122.708ZM110.221 103.185V32.3594H106.221V103.185H110.221ZM108.221 34.3594H128.362V30.3594H108.221V34.3594ZM126.362 32.3594V103.185H130.362V32.3594H126.362ZM126.362 103.185C126.362 108.369 127.224 112.793 129.08 116.343L132.625 114.489C131.161 111.691 130.362 107.961 130.362 103.185H126.362ZM129.086 116.354C130.932 119.829 133.572 122.454 136.989 124.163L138.778 120.585C136.14 119.266 134.093 117.253 132.619 114.478L129.086 116.354ZM136.989 124.163C140.35 125.843 144.259 126.645 148.65 126.645V122.645C144.741 122.645 141.472 121.932 138.778 120.585L136.989 124.163ZM148.65 126.645C153.086 126.645 157.001 125.845 160.323 124.157L158.511 120.591C155.876 121.93 152.614 122.645 148.65 122.645V126.645ZM160.311 124.163C163.734 122.452 166.355 119.819 168.153 116.333L164.597 114.499C163.172 117.263 161.155 119.269 158.523 120.585L160.311 124.163ZM168.158 116.321C169.957 112.778 170.792 108.362 170.792 103.185H166.792C166.792 107.969 166.015 111.707 164.592 114.511L168.158 116.321ZM170.792 103.185V32.3594H166.792V103.185H170.792Z" fill="black" mask="url(#path-1-outside-1_9_10)"/>
<mask id="path-3-outside-2_9_10" maskUnits="userSpaceOnUse" x="8" y="162" width="394" height="111" fill="black">
<rect fill="white" x="8" y="162" width="394" height="111"/>
<path d="M51.1963 232.108H23.7305V216.288H51.1963C55.6885 216.288 59.3262 215.556 62.1094 214.091C64.9414 212.577 67.0166 210.526 68.335 207.938C69.6533 205.302 70.3125 202.299 70.3125 198.93C70.3125 195.658 69.6533 192.606 68.335 189.774C67.0166 186.942 64.9414 184.647 62.1094 182.89C59.3262 181.132 55.6885 180.253 51.1963 180.253H30.3223V271H10.1807V164.359H51.1963C59.4971 164.359 66.5771 165.849 72.4365 168.827C78.3447 171.757 82.8369 175.834 85.9131 181.059C89.0381 186.234 90.6006 192.143 90.6006 198.783C90.6006 205.668 89.0381 211.601 85.9131 216.581C82.8369 221.562 78.3447 225.395 72.4365 228.08C66.5771 230.766 59.4971 232.108 51.1963 232.108ZM177.173 208.378V224.198H121.069V208.378H177.173ZM126.562 164.359V271H106.421V164.359H126.562ZM192.114 164.359V271H171.973V164.359H192.114ZM256.348 180.546L225.952 271H204.639L244.482 164.359H258.105L256.348 180.546ZM281.763 271L251.221 180.546L249.39 164.359H263.086L303.149 271H281.763ZM280.371 231.376V247.27H223.169V231.376H280.371ZM399.829 164.359V271H379.614L334.277 197.025V271H314.136V164.359H334.277L379.761 238.407V164.359H399.829Z"/>
</mask>
<path d="M23.7305 232.108H21.7305V234.108H23.7305V232.108ZM23.7305 216.288V214.288H21.7305V216.288H23.7305ZM62.1094 214.091L63.0409 215.861L63.0521 215.855L62.1094 214.091ZM68.335 207.938L70.117 208.846L70.1205 208.84L70.1238 208.833L68.335 207.938ZM62.1094 182.89L61.0414 184.581L61.048 184.585L61.0546 184.589L62.1094 182.89ZM30.3223 180.253V178.253H28.3223V180.253H30.3223ZM30.3223 271V273H32.3223V271H30.3223ZM10.1807 271H8.18066V273H10.1807V271ZM10.1807 164.359V162.359H8.18066V164.359H10.1807ZM72.4365 168.827L71.5302 170.61L71.5391 170.615L71.548 170.619L72.4365 168.827ZM85.9131 181.059L84.1896 182.073L84.1952 182.083L84.201 182.092L85.9131 181.059ZM85.9131 216.581L84.2189 215.518L84.2115 215.53L85.9131 216.581ZM72.4365 228.08L71.6089 226.259L71.6032 226.262L72.4365 228.08ZM51.1963 230.108H23.7305V234.108H51.1963V230.108ZM25.7305 232.108V216.288H21.7305V232.108H25.7305ZM23.7305 218.288H51.1963V214.288H23.7305V218.288ZM51.1963 218.288C55.8829 218.288 59.8739 217.527 63.0409 215.861L61.1779 212.321C58.7784 213.584 55.494 214.288 51.1963 214.288V218.288ZM63.0521 215.855C66.2051 214.169 68.5935 211.837 70.117 208.846L66.5529 207.031C65.4397 209.216 63.6777 210.985 61.1666 212.327L63.0521 215.855ZM70.1238 208.833C71.5997 205.881 72.3125 202.565 72.3125 198.93H68.3125C68.3125 202.033 67.707 204.722 66.5461 207.044L70.1238 208.833ZM72.3125 198.93C72.3125 195.381 71.5954 192.039 70.1481 188.93L66.5218 190.618C67.7113 193.174 68.3125 195.936 68.3125 198.93H72.3125ZM70.1481 188.93C68.6544 185.722 66.3035 183.139 63.1641 181.19L61.0546 184.589C63.5793 186.156 65.3788 188.163 66.5218 190.618L70.1481 188.93ZM63.1774 181.199C59.978 179.178 55.9332 178.253 51.1963 178.253V182.253C55.4437 182.253 58.6744 183.086 61.0414 184.581L63.1774 181.199ZM51.1963 178.253H30.3223V182.253H51.1963V178.253ZM28.3223 180.253V271H32.3223V180.253H28.3223ZM30.3223 269H10.1807V273H30.3223V269ZM12.1807 271V164.359H8.18066V271H12.1807ZM10.1807 166.359H51.1963V162.359H10.1807V166.359ZM51.1963 166.359C59.2628 166.359 66.0157 167.807 71.5302 170.61L73.3428 167.044C67.1386 163.89 59.7313 162.359 51.1963 162.359V166.359ZM71.548 170.619C77.1402 173.392 81.3277 177.213 84.1896 182.073L87.6365 180.044C84.3461 174.455 79.5493 170.122 73.325 167.035L71.548 170.619ZM84.201 182.092C87.1194 186.926 88.6006 192.47 88.6006 198.783H92.6006C92.6006 191.815 90.9568 185.543 87.6252 180.025L84.201 182.092ZM88.6006 198.783C88.6006 205.357 87.112 210.907 84.219 215.518L87.6072 217.644C90.9642 212.294 92.6006 205.979 92.6006 198.783H88.6006ZM84.2115 215.53C81.3662 220.137 77.1967 223.719 71.6089 226.259L73.2641 229.901C79.4928 227.07 84.3076 222.986 87.6147 217.632L84.2115 215.53ZM71.6032 226.262C66.0691 228.798 59.2891 230.108 51.1963 230.108V234.108C59.7051 234.108 67.0852 232.733 73.2698 229.898L71.6032 226.262ZM177.173 208.378H179.173V206.378H177.173V208.378ZM177.173 224.198V226.198H179.173V224.198H177.173ZM121.069 224.198H119.069V226.198H121.069V224.198ZM121.069 208.378V206.378H119.069V208.378H121.069ZM126.562 164.359H128.562V162.359H126.562V164.359ZM126.562 271V273H128.562V271H126.562ZM106.421 271H104.421V273H106.421V271ZM106.421 164.359V162.359H104.421V164.359H106.421ZM192.114 164.359H194.114V162.359H192.114V164.359ZM192.114 271V273H194.114V271H192.114ZM171.973 271H169.973V273H171.973V271ZM171.973 164.359V162.359H169.973V164.359H171.973ZM175.173 208.378V224.198H179.173V208.378H175.173ZM177.173 222.198H121.069V226.198H177.173V222.198ZM123.069 224.198V208.378H119.069V224.198H123.069ZM121.069 210.378H177.173V206.378H121.069V210.378ZM124.562 164.359V271H128.562V164.359H124.562ZM126.562 269H106.421V273H126.562V269ZM108.421 271V164.359H104.421V271H108.421ZM106.421 166.359H126.562V162.359H106.421V166.359ZM190.114 164.359V271H194.114V164.359H190.114ZM192.114 269H171.973V273H192.114V269ZM173.973 271V164.359H169.973V271H173.973ZM171.973 166.359H192.114V162.359H171.973V166.359ZM256.348 180.546L258.243 181.183L258.313 180.977L258.336 180.762L256.348 180.546ZM225.952 271V273H227.39L227.848 271.637L225.952 271ZM204.639 271L202.765 270.3L201.756 273H204.639V271ZM244.482 164.359V162.359H243.095L242.609 163.659L244.482 164.359ZM258.105 164.359L260.094 164.575L260.334 162.359H258.105V164.359ZM281.763 271L279.868 271.64L280.327 273H281.763V271ZM251.221 180.546L249.233 180.771L249.257 180.983L249.326 181.186L251.221 180.546ZM249.39 164.359V162.359H247.151L247.402 164.584L249.39 164.359ZM263.086 164.359L264.958 163.656L264.471 162.359H263.086V164.359ZM303.149 271V273H306.037L305.022 270.297L303.149 271ZM280.371 231.376H282.371V229.376H280.371V231.376ZM280.371 247.27V249.27H282.371V247.27H280.371ZM223.169 247.27H221.169V249.27H223.169V247.27ZM223.169 231.376V229.376H221.169V231.376H223.169ZM254.452 179.909L224.056 270.363L227.848 271.637L258.243 181.183L254.452 179.909ZM225.952 269H204.639V273H225.952V269ZM206.512 271.7L246.356 165.059L242.609 163.659L202.765 270.3L206.512 271.7ZM244.482 166.359H258.105V162.359H244.482V166.359ZM256.117 164.143L254.359 180.33L258.336 180.762L260.094 164.575L256.117 164.143ZM283.658 270.36L253.116 179.906L249.326 181.186L279.868 271.64L283.658 270.36ZM253.208 180.321L251.377 164.135L247.402 164.584L249.233 180.771L253.208 180.321ZM249.39 166.359H263.086V162.359H249.39V166.359ZM261.214 165.063L301.277 271.703L305.022 270.297L264.958 163.656L261.214 165.063ZM303.149 269H281.763V273H303.149V269ZM278.371 231.376V247.27H282.371V231.376H278.371ZM280.371 245.27H223.169V249.27H280.371V245.27ZM225.169 247.27V231.376H221.169V247.27H225.169ZM223.169 233.376H280.371V229.376H223.169V233.376ZM399.829 164.359H401.829V162.359H399.829V164.359ZM399.829 271V273H401.829V271H399.829ZM379.614 271L377.909 272.045L378.494 273H379.614V271ZM334.277 197.025L335.983 195.98L332.277 189.935V197.025H334.277ZM334.277 271V273H336.277V271H334.277ZM314.136 271H312.136V273H314.136V271ZM314.136 164.359V162.359H312.136V164.359H314.136ZM334.277 164.359L335.982 163.313L335.396 162.359H334.277V164.359ZM379.761 238.407L378.057 239.454L381.761 245.484V238.407H379.761ZM379.761 164.359V162.359H377.761V164.359H379.761ZM397.829 164.359V271H401.829V164.359H397.829ZM399.829 269H379.614V273H399.829V269ZM381.319 269.955L335.983 195.98L332.572 198.07L377.909 272.045L381.319 269.955ZM332.277 197.025V271H336.277V197.025H332.277ZM334.277 269H314.136V273H334.277V269ZM316.136 271V164.359H312.136V271H316.136ZM314.136 166.359H334.277V162.359H314.136V166.359ZM332.573 165.406L378.057 239.454L381.465 237.36L335.982 163.313L332.573 165.406ZM381.761 238.407V164.359H377.761V238.407H381.761ZM379.761 166.359H399.829V162.359H379.761V166.359Z" fill="black" mask="url(#path-3-outside-2_9_10)"/>
</svg>
